# xmcd
#
# Track frame offsets: 
#        150
#        12587
#        24366
#        37155
#        49809
#        62199
#        74407
#        86685
#        98056
#        111958
#        122944
#        135946
#        149688
#        159586
#        171402
#        184991
#        196608
#        206567
#        218447
#        231439
#        244337
#        255603
#        269305
#        282837
#        294677
#        307267
#        317133
#        328242
#
# Disc length: 4532 seconds
#
# Revision: 0
# Processed by: cddbd v1.5.2PL0 Copyright (c) Steve Scherf et al.
# Submitted via: ExactAudioCopy v0.99pb4
#
DISCID=bc11b21c
DTITLE=Champion Jack Dupree - Walkin' the Blues: The Very Best of Cham
DTITLE=pion Jack Dupree
DYEAR=2003
DGENRE=Blues
TTITLE0=Heart Breaking Woman
TTITLE1=Watchin' My Stuff
TTITLE2=Ain't No Mean On De Bone
TTITLE3=The Blues Got Me Rockin'
TTITLE4=Tongue Tied Blues
TTITLE5=Please Tell Me Baby
TTITLE6=Walkin' Upside Your Head
TTITLE7=Rub A Little Boogie
TTITLE8=Hard Feeling
TTITLE9=Camille
TTITLE10=Harelip Blues
TTITLE11=Two Below Zero
TTITLE12=Let The Doorbell Ring
TTITLE13=Blues For Everybody
TTITLE14=Walkin' The Blues
TTITLE15=Daybreak Rock
TTITLE16=That's My Pa
TTITLE17=She Cooks Me Cabbage
TTITLE18=Failing Health Blues
TTITLE19=Stumbling Block
TTITLE20=Mail Order Woman
TTITLE21=Silent Partner
TTITLE22=House Rent Party
TTITLE23=Big Leg Emma's
TTITLE24=Overhead
TTITLE25=Me And My Mule
TTITLE26=So Sorry, So Sorry
TTITLE27=Sharp Harp
EXTD=(c) 2003 King Records Nashville, Tennessee
EXTT0=
EXTT1=
EXTT2=
EXTT3=
EXTT4=
EXTT5=
EXTT6=
EXTT7=
EXTT8=
EXTT9=
EXTT10=
EXTT11=
EXTT12=
EXTT13=
EXTT14=
EXTT15=
EXTT16=
EXTT17=
EXTT18=
EXTT19=
EXTT20=
EXTT21=
EXTT22=
EXTT23=
EXTT24=
EXTT25=
EXTT26=
EXTT27=
PLAYORDER=
